<?xml version="1.0" standalone="no"?>
<!DOCTYPE svg PUBLIC "-//W3C//DTD SVG 20010904//EN"
 "http://www.w3.org/TR/2001/REC-SVG-20010904/DTD/svg10.dtd">
<svg version="1.0" xmlns="http://www.w3.org/2000/svg"
 width="501.000000pt" height="36.000000pt" viewBox="0 0 6001.000000 415.000000"
 preserveAspectRatio="xMidYMid meet">

<g transform="translate(0.000000,365.000000) scale(0.100000,-0.100000)"
fill="#000000" stroke="none">
<path d="M2610 3504 c-374 -34 -740 -186 -1025 -426 -206 -173 -399 -417 -519
-657 -65 -129 -95 -167 -138 -175 -43 -8 -129 -48 -151 -70 -21 -22 -22 -74
-2 -104 9 -12 36 -33 60 -48 24 -14 47 -34 50 -44 3 -10 -1 -45 -9 -77 -26
-104 -36 -199 -36 -348 0 -239 50 -432 157 -602 61 -98 117 -160 245 -270 49
-41 88 -78 88 -82 0 -9 -76 -16 -370 -31 -475 -26 -880 -88 -880 -135 0 -30
116 -62 342 -94 310 -45 342 -46 1673 -46 1385 0 1304 -3 1560 61 580 145 919
373 1086 728 75 161 106 333 95 541 -24 497 -227 969 -566 1319 -139 144 -280
248 -460 340 -228 116 -412 174 -645 201 -130 15 -470 27 -555 19z m595 -87
c309 -58 499 -134 728 -290 180 -123 371 -317 492 -502 104 -159 217 -414 265
-600 31 -123 40 -228 40 -499 l0 -249 -71 -136 c-86 -164 -146 -247 -247 -342
-244 -228 -589 -366 -1092 -436 -183 -26 -815 -26 -1015 0 -492 64 -853 208
-1101 439 -85 80 -153 172 -213 288 -79 154 -81 166 -81 477 0 261 7 351 32
380 7 9 42 13 117 13 200 1 343 32 414 91 44 36 50 80 17 122 -45 57 -210 107
-355 107 -90 0 -90 0 -36 108 253 500 663 856 1136 986 217 59 364 76 635 71
164 -3 231 -9 335 -28z"/>
<path d="M1500 2480 l0 -80 375 0 375 0 0 80 0 80 -375 0 -375 0 0 -80z"/>
<path d="M2880 2480 l0 -80 359 0 358 0 7 61 c3 34 6 70 6 80 0 18 -16 19
-365 19 l-365 0 0 -80z"/>
<path d="M3645 2203 c-116 -16 -228 -68 -255 -117 -26 -50 14 -103 106 -139
121 -47 406 -49 528 -4 125 46 160 111 94 176 -67 65 -303 107 -473 84z"/>
<path d="M2521 1654 c-56 -39 -79 -156 -39 -194 22 -20 22 -21 4 -51 -26 -44
-15 -89 34 -133 22 -20 44 -36 49 -36 5 0 16 -3 25 -6 44 -17 -12 67 -74 109
l-25 18 60 54 c51 46 57 54 37 55 -12 0 -38 7 -57 14 -48 20 -48 59 0 116 51
61 43 93 -14 54z"/>
</g>
</svg>
